<svg xmlns="http://www.w3.org/2000/svg" width="44.211" height="58.948" viewBox="0 0 44.211 58.948"><defs><style>.a{fill:#fff;}</style></defs><path class="a" d="M33.158,28.553v3.224a1.386,1.386,0,0,1-1.382,1.382H12.434a1.386,1.386,0,0,1-1.382-1.382V28.553a1.386,1.386,0,0,1,1.382-1.382H31.776A1.386,1.386,0,0,1,33.158,28.553Zm-1.382,8.29H12.434a1.386,1.386,0,0,0-1.382,1.382v3.224a1.386,1.386,0,0,0,1.382,1.382H31.776a1.386,1.386,0,0,0,1.382-1.382V38.224A1.386,1.386,0,0,0,31.776,36.842ZM44.21,15.186V53.421a5.528,5.528,0,0,1-5.526,5.526H5.526A5.528,5.528,0,0,1,0,53.421V5.526A5.528,5.528,0,0,1,5.526,0h23.5a5.526,5.526,0,0,1,3.9,1.623l9.66,9.66A5.506,5.506,0,0,1,44.21,15.186ZM29.474,5.975v8.762h8.762L29.474,5.975Zm9.211,47.446V20.263H26.711A2.757,2.757,0,0,1,23.947,17.5V5.526H5.526V53.421Z"/></svg>