<svg xmlns="http://www.w3.org/2000/svg" width="73.683" height="58.948" viewBox="0 0 73.683 58.948"><defs><style>.a{fill:#fff;}</style></defs><path class="a" d="M14.737,53.421V46.053H33.553a20.1,20.1,0,0,1-1.885-5.526H5.526V29.474A3.684,3.684,0,0,1,9.211,25.79H34.618a20.411,20.411,0,0,1,5.348-5.526H14.737V5.526H36.842v5.526a1.842,1.842,0,0,0,1.842,1.842H44.21v5.091a20.105,20.105,0,0,1,5.526-1.314V11.5a5.526,5.526,0,0,0-1.619-3.907L42.145,1.619A5.526,5.526,0,0,0,38.237,0H12.72A3.6,3.6,0,0,0,9.211,3.684V20.263A9.211,9.211,0,0,0,0,29.474V44.211a1.842,1.842,0,0,0,1.842,1.842H9.211V57.106a1.842,1.842,0,0,0,1.842,1.842H47.895a1.842,1.842,0,0,0,1.842-1.842v-.093a20.127,20.127,0,0,1-9.771-3.591ZM73.144,54.5l-9.379-9.379a14.751,14.751,0,1,0-3.908,3.906l9.38,9.379a1.842,1.842,0,0,0,2.6,0l1.3-1.3A1.842,1.842,0,0,0,73.144,54.5ZM51.579,46.053a9.211,9.211,0,1,1,9.211-9.211A9.211,9.211,0,0,1,51.579,46.053Z"/></svg>