<svg xmlns="http://www.w3.org/2000/svg" width="57.105" height="57.105" viewBox="0 0 57.105 57.105"><defs><style>.a{fill:#fff;}</style></defs><path class="a" d="M28.553,8A28.553,28.553,0,1,0,57.105,36.553,28.548,28.548,0,0,0,28.553,8Zm0,51.579A23.026,23.026,0,1,1,51.579,36.553,23.05,23.05,0,0,1,28.553,59.579Zm9.671-16.51a12.577,12.577,0,0,1-19.342,0A2.763,2.763,0,1,0,14.633,46.6a18.124,18.124,0,0,0,27.839,0,2.763,2.763,0,1,0-4.248-3.535Zm-22.508-11.7a4.307,4.307,0,0,1,3.627-2.487,4.307,4.307,0,0,1,3.627,2.487l1.094,1.957a.912.912,0,0,0,1.071.426.923.923,0,0,0,.656-.956c-.38-4.847-3.707-8.22-6.447-8.22s-6.067,3.373-6.447,8.22a.931.931,0,0,0,.656.956.943.943,0,0,0,1.071-.426Zm22.048-6.793c-2.74,0-6.067,3.373-6.447,8.22a.926.926,0,0,0,1.727.53l1.094-1.957a4.307,4.307,0,0,1,3.627-2.487,4.307,4.307,0,0,1,3.627,2.487l1.094,1.957a.912.912,0,0,0,1.071.426.923.923,0,0,0,.656-.956C43.831,27.952,40.5,24.579,37.763,24.579Z" transform="translate(0 -8)"/></svg>